<?xml version="1.0" encoding="UTF-8"?>
<svg id="Ebene_1" data-name="Ebene 1" xmlns="http://www.w3.org/2000/svg" viewBox="0 0 28.86 29.35" >
  <defs>
    <style>
      .cls-1, .cls-2, .cls-3 {
        fill: none;
        stroke: currentColor;
        stroke-miterlimit: 10;
        stroke-width: 1.5px;
      }

      .cls-1, .cls-3 {
        stroke-linecap: round;
      }

      .cls-3 {
        stroke-dasharray: 0 0 1 2;
      }
    </style>
  </defs>
  <path class="cls-2" d="m21.47,7.89c0,3.94-5.25,10.68-7.14,10.68-1.72,0-7.14-6.73-7.14-10.68S10.39.75,14.33.75s7.14,3.2,7.14,7.14Z"/>
  <circle class="cls-2" cx="14.33" cy="7.73" r="3.21"/>
  <line class="cls-1" x1="19.54" y1="19.83" x2="22.16" y2="22.21"/>
  <line class="cls-1" x1="22.54" y1="20.51" x2="19.15" y2="21.53"/>
  <path class="cls-3" d="m4.08,26.1c3.76-11.62,13.46,2.56,16.48-3.32"/>
  <path class="cls-1" d="m8.59,15.98h-4.16c-.31,0-.58.21-.66.51L.77,27.74c-.12.43.21.86.66.86h25.99c.44,0,.77-.41.66-.84l-2.73-11.25c-.07-.31-.35-.52-.66-.52h-4.31"/>
</svg>