<svg width="153" height="94" viewBox="0 0 153 94" fill="none" xmlns="http://www.w3.org/2000/svg">
<path d="M7.32386 52.7102C7.27841 52.2519 7.08333 51.8958 6.73864 51.642C6.39394 51.3883 5.92614 51.2614 5.33523 51.2614C4.93371 51.2614 4.5947 51.3182 4.31818 51.4318C4.04167 51.5417 3.82955 51.6951 3.68182 51.892C3.53788 52.089 3.46591 52.3125 3.46591 52.5625C3.45833 52.7708 3.50189 52.9527 3.59659 53.108C3.69508 53.2633 3.82955 53.3977 4 53.5114C4.17045 53.6212 4.36742 53.7178 4.59091 53.8011C4.81439 53.8807 5.05303 53.9489 5.30682 54.0057L6.35227 54.2557C6.85985 54.3693 7.32576 54.5208 7.75 54.7102C8.17424 54.8996 8.54167 55.1326 8.85227 55.4091C9.16288 55.6856 9.40341 56.0114 9.57386 56.3864C9.74811 56.7614 9.83712 57.1913 9.84091 57.6761C9.83712 58.3883 9.6553 59.0057 9.29545 59.5284C8.93939 60.0473 8.42424 60.4508 7.75 60.7386C7.07955 61.0227 6.27083 61.1648 5.32386 61.1648C4.38447 61.1648 3.56629 61.0208 2.86932 60.733C2.17614 60.4451 1.63447 60.0189 1.24432 59.4545C0.857955 58.8864 0.655303 58.1837 0.636364 57.3466H3.01705C3.04356 57.7367 3.1553 58.0625 3.35227 58.3239C3.55303 58.5814 3.82008 58.7765 4.15341 58.9091C4.49053 59.0379 4.87121 59.1023 5.29545 59.1023C5.71212 59.1023 6.07386 59.0417 6.38068 58.9205C6.69129 58.7992 6.93182 58.6307 7.10227 58.4148C7.27273 58.1989 7.35795 57.9508 7.35795 57.6705C7.35795 57.4091 7.2803 57.1894 7.125 57.0114C6.97348 56.8333 6.75 56.6818 6.45455 56.5568C6.16288 56.4318 5.80492 56.3182 5.38068 56.2159L4.11364 55.8977C3.13258 55.6591 2.35795 55.286 1.78977 54.7784C1.22159 54.2708 0.939394 53.5871 0.943182 52.7273C0.939394 52.0227 1.12689 51.4072 1.50568 50.8807C1.88826 50.3542 2.41288 49.9432 3.07955 49.6477C3.74621 49.3523 4.50379 49.2045 5.35227 49.2045C6.21591 49.2045 6.9697 49.3523 7.61364 49.6477C8.26136 49.9432 8.76515 50.3542 9.125 50.8807C9.48485 51.4072 9.67045 52.017 9.68182 52.7102H7.32386ZM18.6832 49.3636H21.1435V56.9205C21.1435 57.7689 20.9408 58.5114 20.5355 59.1477C20.134 59.7841 19.5715 60.2803 18.848 60.6364C18.1245 60.9886 17.2817 61.1648 16.3196 61.1648C15.3537 61.1648 14.509 60.9886 13.7855 60.6364C13.062 60.2803 12.4995 59.7841 12.098 59.1477C11.6965 58.5114 11.4957 57.7689 11.4957 56.9205V49.3636H13.956V56.7102C13.956 57.1534 14.0526 57.5473 14.2457 57.892C14.4427 58.2367 14.7192 58.5076 15.0753 58.7045C15.4313 58.9015 15.8461 59 16.3196 59C16.7969 59 17.2116 58.9015 17.5639 58.7045C17.92 58.5076 18.1946 58.2367 18.3878 57.892C18.5848 57.5473 18.6832 57.1534 18.6832 56.7102V49.3636ZM23.1676 49.3636H26.2017L29.4062 57.1818H29.5426L32.7472 49.3636H35.7812V61H33.3949V53.4261H33.2983L30.2869 60.9432H28.6619L25.6506 53.3977H25.554V61H23.1676V49.3636ZM37.8082 49.3636H40.8423L44.0469 57.1818H44.1832L47.3878 49.3636H50.4219V61H48.0355V53.4261H47.9389L44.9276 60.9432H43.3026L40.2912 53.3977H40.1946V61H37.8082V49.3636ZM54.9091 49.3636V61H52.4489V49.3636H54.9091ZM56.4901 51.392V49.3636H66.0469V51.392H62.4844V61H60.0526V51.392H56.4901ZM77.6364 52.7102C77.5909 52.2519 77.3958 51.8958 77.0511 51.642C76.7064 51.3883 76.2386 51.2614 75.6477 51.2614C75.2462 51.2614 74.9072 51.3182 74.6307 51.4318C74.3542 51.5417 74.142 51.6951 73.9943 51.892C73.8504 52.089 73.7784 52.3125 73.7784 52.5625C73.7708 52.7708 73.8144 52.9527 73.9091 53.108C74.0076 53.2633 74.142 53.3977 74.3125 53.5114C74.483 53.6212 74.6799 53.7178 74.9034 53.8011C75.1269 53.8807 75.3655 53.9489 75.6193 54.0057L76.6648 54.2557C77.1723 54.3693 77.6383 54.5208 78.0625 54.7102C78.4867 54.8996 78.8542 55.1326 79.1648 55.4091C79.4754 55.6856 79.7159 56.0114 79.8864 56.3864C80.0606 56.7614 80.1496 57.1913 80.1534 57.6761C80.1496 58.3883 79.9678 59.0057 79.608 59.5284C79.2519 60.0473 78.7367 60.4508 78.0625 60.7386C77.392 61.0227 76.5833 61.1648 75.6364 61.1648C74.697 61.1648 73.8788 61.0208 73.1818 60.733C72.4886 60.4451 71.947 60.0189 71.5568 59.4545C71.1705 58.8864 70.9678 58.1837 70.9489 57.3466H73.3295C73.3561 57.7367 73.4678 58.0625 73.6648 58.3239C73.8655 58.5814 74.1326 58.7765 74.4659 58.9091C74.803 59.0379 75.1837 59.1023 75.608 59.1023C76.0246 59.1023 76.3864 59.0417 76.6932 58.9205C77.0038 58.7992 77.2443 58.6307 77.4148 58.4148C77.5852 58.1989 77.6705 57.9508 77.6705 57.6705C77.6705 57.4091 77.5928 57.1894 77.4375 57.0114C77.286 56.8333 77.0625 56.6818 76.767 56.5568C76.4754 56.4318 76.1174 56.3182 75.6932 56.2159L74.4261 55.8977C73.4451 55.6591 72.6705 55.286 72.1023 54.7784C71.5341 54.2708 71.2519 53.5871 71.2557 52.7273C71.2519 52.0227 71.4394 51.4072 71.8182 50.8807C72.2008 50.3542 72.7254 49.9432 73.392 49.6477C74.0587 49.3523 74.8163 49.2045 75.6648 49.2045C76.5284 49.2045 77.2822 49.3523 77.9261 49.6477C78.5739 49.9432 79.0777 50.3542 79.4375 50.8807C79.7973 51.4072 79.983 52.017 79.9943 52.7102H77.6364ZM81.8082 61V49.3636H89.6491V51.392H84.2685V54.1648H89.2457V56.1932H84.2685V58.9716H89.6719V61H81.8082ZM91.6051 61V49.3636H99.446V51.392H94.0653V54.1648H99.0426V56.1932H94.0653V58.9716H99.4688V61H91.6051ZM101.402 61V49.3636H103.862V54.4943H104.016L108.203 49.3636H111.152L106.834 54.5739L111.203 61H108.26L105.072 56.2159L103.862 57.6932V61H101.402ZM112.433 61V49.3636H120.274V51.392H114.893V54.1648H119.871V56.1932H114.893V58.9716H120.297V61H112.433ZM122.23 61V49.3636H126.821C127.7 49.3636 128.45 49.5208 129.071 49.8352C129.696 50.1458 130.171 50.5871 130.497 51.1591C130.827 51.7273 130.991 52.3958 130.991 53.1648C130.991 53.9375 130.825 54.6023 130.491 55.1591C130.158 55.7121 129.675 56.1364 129.043 56.4318C128.414 56.7273 127.652 56.875 126.759 56.875H123.685V54.8977H126.361C126.83 54.8977 127.221 54.8333 127.531 54.7045C127.842 54.5758 128.073 54.3826 128.224 54.125C128.38 53.8674 128.457 53.5473 128.457 53.1648C128.457 52.7784 128.38 52.4527 128.224 52.1875C128.073 51.9223 127.84 51.7216 127.526 51.5852C127.215 51.4451 126.823 51.375 126.349 51.375H124.69V61H122.23ZM128.514 55.7045L131.406 61H128.69L125.861 55.7045H128.514ZM139.043 52.7102C138.997 52.2519 138.802 51.8958 138.457 51.642C138.113 51.3883 137.645 51.2614 137.054 51.2614C136.652 51.2614 136.313 51.3182 136.037 51.4318C135.76 51.5417 135.548 51.6951 135.401 51.892C135.257 52.089 135.185 52.3125 135.185 52.5625C135.177 52.7708 135.221 52.9527 135.315 53.108C135.414 53.2633 135.548 53.3977 135.719 53.5114C135.889 53.6212 136.086 53.7178 136.31 53.8011C136.533 53.8807 136.772 53.9489 137.026 54.0057L138.071 54.2557C138.579 54.3693 139.045 54.5208 139.469 54.7102C139.893 54.8996 140.26 55.1326 140.571 55.4091C140.882 55.6856 141.122 56.0114 141.293 56.3864C141.467 56.7614 141.556 57.1913 141.56 57.6761C141.556 58.3883 141.374 59.0057 141.014 59.5284C140.658 60.0473 140.143 60.4508 139.469 60.7386C138.798 61.0227 137.99 61.1648 137.043 61.1648C136.103 61.1648 135.285 61.0208 134.588 60.733C133.895 60.4451 133.353 60.0189 132.963 59.4545C132.577 58.8864 132.374 58.1837 132.355 57.3466H134.736C134.762 57.7367 134.874 58.0625 135.071 58.3239C135.272 58.5814 135.539 58.7765 135.872 58.9091C136.209 59.0379 136.59 59.1023 137.014 59.1023C137.431 59.1023 137.793 59.0417 138.099 58.9205C138.41 58.7992 138.651 58.6307 138.821 58.4148C138.991 58.1989 139.077 57.9508 139.077 57.6705C139.077 57.4091 138.999 57.1894 138.844 57.0114C138.692 56.8333 138.469 56.6818 138.173 56.5568C137.882 56.4318 137.524 56.3182 137.099 56.2159L135.832 55.8977C134.851 55.6591 134.077 55.286 133.509 54.7784C132.94 54.2708 132.658 53.5871 132.662 52.7273C132.658 52.0227 132.846 51.4072 133.224 50.8807C133.607 50.3542 134.132 49.9432 134.798 49.6477C135.465 49.3523 136.223 49.2045 137.071 49.2045C137.935 49.2045 138.688 49.3523 139.332 49.6477C139.98 49.9432 140.484 50.3542 140.844 50.8807C141.204 51.4072 141.389 52.017 141.401 52.7102H139.043Z" fill="white"/>
<path d="M111.647 38.7909L118.158 30.5854H106.459" stroke="white" stroke-width="2" stroke-miterlimit="10"/>
<path d="M68.6835 79.097L74.1655 86L79.6475 79.097" stroke="white" stroke-width="2" stroke-miterlimit="10"/>
<path d="M41.8615 30.5854H30.1624L36.6841 38.7909" stroke="white" stroke-width="2" stroke-miterlimit="10"/>
<path d="M104.558 36.6194C99.9793 30.4872 96.3036 23.8395 92.8695 17.0341C92.7855 16.8763 92.8485 16.992 92.8695 17.0236C93.0585 17.255 93.4156 17.2865 93.6256 17.0656C90.9056 21.5044 87.1354 27.0792 83.3652 31.4444C85.4131 25.9432 88.0701 20.7892 90.9056 15.6877C91.0842 15.3616 91.2732 15.0356 91.5672 14.7726C92.7855 13.5735 95.0224 14.0994 95.6525 15.6141C99.1181 22.3985 102.3 29.2986 104.548 36.6194H104.558Z" fill="white"/>
<path d="M58.0555 24.6389C56.4382 22.8192 54.1067 19.3061 53.1721 18.0649C53.2246 18.0964 53.3401 18.0544 53.4031 18.0018C52.8675 19.4744 52.2689 20.9364 51.6283 22.3669C49.4964 27.0582 47.1124 31.5811 43.7623 35.5886C45.0016 28.8673 47.7846 22.6615 51.0612 16.7396C51.9433 15.1197 54.4848 15.309 55.0834 16.992C56.1651 19.4954 57.2048 22.0093 58.045 24.6389H58.0555Z" fill="white"/>
<path d="M54.4218 37.0297C59.2736 24.9019 65.5118 12.9845 71.8129 1.56143C72.6531 -0.426561 75.4886 -0.552783 76.4338 1.39313C80.4665 8.80865 84.3733 16.2662 87.7549 24.0183C82.7245 17.1498 78.2296 9.99723 73.8188 2.73949C73.9238 2.98142 74.3334 3.07609 74.5539 2.82364C74.575 2.80261 74.617 2.73949 74.6065 2.76053C74.5329 2.89727 74.3124 3.31801 74.2389 3.45475C68.2318 14.8462 61.7941 26.4376 54.4323 37.0191L54.4218 37.0297Z" fill="white"/>
<path d="M111.647 38.7909L118.158 30.5854H106.459" stroke="white" stroke-width="2" stroke-miterlimit="10"/>
<path d="M41.8615 30.5854H30.1624L36.6841 38.7909" stroke="white" stroke-width="2" stroke-miterlimit="10"/>
<path d="M104.558 36.6194C99.9793 30.4872 96.3036 23.8395 92.8695 17.0341C92.7855 16.8763 92.8485 16.992 92.8695 17.0236C93.0585 17.255 93.4156 17.2865 93.6256 17.0656C90.9056 21.5044 87.1354 27.0792 83.3652 31.4444C85.4131 25.9432 88.0701 20.7892 90.9056 15.6877C91.0842 15.3616 91.2732 15.0356 91.5672 14.7726C92.7855 13.5735 95.0224 14.0994 95.6525 15.6141C99.1181 22.3985 102.3 29.2986 104.548 36.6194H104.558Z" fill="white"/>
<path d="M58.0555 24.6389C56.4382 22.8192 54.1067 19.3061 53.1721 18.0649C53.2246 18.0964 53.3401 18.0544 53.4031 18.0018C52.8675 19.4744 52.2689 20.9364 51.6283 22.3669C49.4964 27.0582 47.1124 31.5811 43.7623 35.5886C45.0016 28.8673 47.7846 22.6615 51.0612 16.7396C51.9433 15.1197 54.4848 15.309 55.0834 16.992C56.1651 19.4954 57.2048 22.0093 58.045 24.6389H58.0555Z" fill="white"/>
<path d="M54.4218 37.0297C59.2736 24.9019 65.5118 12.9845 71.8129 1.56143C72.6531 -0.426561 75.4886 -0.552783 76.4338 1.39313C80.4665 8.80865 84.3733 16.2662 87.7549 24.0183C82.7245 17.1498 78.2296 9.99723 73.8188 2.73949C73.9238 2.98142 74.3334 3.07609 74.5539 2.82364C74.575 2.80261 74.617 2.73949 74.6065 2.76053C74.5329 2.89727 74.3124 3.31801 74.2389 3.45475C68.2318 14.8462 61.7941 26.4376 54.4323 37.0191L54.4218 37.0297Z" fill="white"/>
<path d="M11.3599 70.4467H68.7701" stroke="#F5F4F3"/>
<path d="M79.801 70.4467H137.211" stroke="#F5F4F3"/>
<circle cx="74.2855" cy="70.4467" r="2.7577" fill="#F5F4F3"/>
</svg>
