<?xml version="1.0" encoding="UTF-8" standalone="no"?>
<!DOCTYPE svg PUBLIC "-//W3C//DTD SVG 1.1//EN" "http://www.w3.org/Graphics/SVG/1.1/DTD/svg11.dtd">
<svg width="100%" height="100%" viewBox="0 0 153 94" version="1.1" xmlns="http://www.w3.org/2000/svg" xmlns:xlink="http://www.w3.org/1999/xlink" xml:space="preserve" xmlns:serif="http://www.serif.com/" style="fill-rule:evenodd;clip-rule:evenodd;stroke-miterlimit:10;">
    <g transform="matrix(1.0853,0,0,1.09365,-0.775508,-0.240409)">
        <path d="M7.324,52.71C7.278,52.252 7.083,51.896 6.739,51.642C6.394,51.388 5.926,51.261 5.335,51.261C4.934,51.261 4.595,51.318 4.318,51.432C4.042,51.542 3.83,51.695 3.682,51.892C3.538,52.089 3.466,52.313 3.466,52.563C3.458,52.771 3.502,52.953 3.597,53.108C3.695,53.263 3.83,53.398 4,53.511C4.17,53.621 4.367,53.718 4.591,53.801C4.814,53.881 5.053,53.949 5.307,54.006L6.352,54.256C6.86,54.369 7.326,54.521 7.75,54.71C8.174,54.9 8.542,55.133 8.852,55.409C9.163,55.686 9.403,56.011 9.574,56.386C9.748,56.761 9.837,57.191 9.841,57.676C9.837,58.388 9.655,59.006 9.295,59.528C8.939,60.047 8.424,60.451 7.75,60.739C7.08,61.023 6.271,61.165 5.324,61.165C4.384,61.165 3.566,61.021 2.869,60.733C2.176,60.445 1.634,60.019 1.244,59.455C0.858,58.886 0.655,58.184 0.636,57.347L3.017,57.347C3.044,57.737 3.155,58.063 3.352,58.324C3.553,58.581 3.82,58.777 4.153,58.909C4.491,59.038 4.871,59.102 5.295,59.102C5.712,59.102 6.074,59.042 6.381,58.92C6.691,58.799 6.932,58.631 7.102,58.415C7.273,58.199 7.358,57.951 7.358,57.67C7.358,57.409 7.28,57.189 7.125,57.011C6.973,56.833 6.75,56.682 6.455,56.557C6.163,56.432 5.805,56.318 5.381,56.216L4.114,55.898C3.133,55.659 2.358,55.286 1.79,54.778C1.222,54.271 0.939,53.587 0.943,52.727C0.939,52.023 1.127,51.407 1.506,50.881C1.888,50.354 2.413,49.943 3.08,49.648C3.746,49.352 4.504,49.205 5.352,49.205C6.216,49.205 6.97,49.352 7.614,49.648C8.261,49.943 8.765,50.354 9.125,50.881C9.485,51.407 9.67,52.017 9.682,52.71L7.324,52.71ZM18.683,49.364L21.144,49.364L21.144,56.92C21.144,57.769 20.941,58.511 20.536,59.148C20.134,59.784 19.572,60.28 18.848,60.636C18.125,60.989 17.282,61.165 16.32,61.165C15.354,61.165 14.509,60.989 13.786,60.636C13.062,60.28 12.5,59.784 12.098,59.148C11.697,58.511 11.496,57.769 11.496,56.92L11.496,49.364L13.956,49.364L13.956,56.71C13.956,57.153 14.053,57.547 14.246,57.892C14.443,58.237 14.719,58.508 15.075,58.705C15.431,58.902 15.846,59 16.32,59C16.797,59 17.212,58.902 17.564,58.705C17.92,58.508 18.195,58.237 18.388,57.892C18.585,57.547 18.683,57.153 18.683,56.71L18.683,49.364ZM23.168,49.364L26.202,49.364L29.406,57.182L29.543,57.182L32.747,49.364L35.781,49.364L35.781,61L33.395,61L33.395,53.426L33.298,53.426L30.287,60.943L28.662,60.943L25.651,53.398L25.554,53.398L25.554,61L23.168,61L23.168,49.364ZM37.808,49.364L40.842,49.364L44.047,57.182L44.183,57.182L47.388,49.364L50.422,49.364L50.422,61L48.036,61L48.036,53.426L47.939,53.426L44.928,60.943L43.303,60.943L40.291,53.398L40.195,53.398L40.195,61L37.808,61L37.808,49.364ZM54.909,49.364L54.909,61L52.449,61L52.449,49.364L54.909,49.364ZM56.49,51.392L56.49,49.364L66.047,49.364L66.047,51.392L62.484,51.392L62.484,61L60.053,61L60.053,51.392L56.49,51.392ZM77.636,52.71C77.591,52.252 77.396,51.896 77.051,51.642C76.706,51.388 76.239,51.261 75.648,51.261C75.246,51.261 74.907,51.318 74.631,51.432C74.354,51.542 74.142,51.695 73.994,51.892C73.85,52.089 73.778,52.313 73.778,52.563C73.771,52.771 73.814,52.953 73.909,53.108C74.008,53.263 74.142,53.398 74.313,53.511C74.483,53.621 74.68,53.718 74.903,53.801C75.127,53.881 75.366,53.949 75.619,54.006L76.665,54.256C77.172,54.369 77.638,54.521 78.063,54.71C78.487,54.9 78.854,55.133 79.165,55.409C79.475,55.686 79.716,56.011 79.886,56.386C80.061,56.761 80.15,57.191 80.153,57.676C80.15,58.388 79.968,59.006 79.608,59.528C79.252,60.047 78.737,60.451 78.063,60.739C77.392,61.023 76.583,61.165 75.636,61.165C74.697,61.165 73.879,61.021 73.182,60.733C72.489,60.445 71.947,60.019 71.557,59.455C71.171,58.886 70.968,58.184 70.949,57.347L73.33,57.347C73.356,57.737 73.468,58.063 73.665,58.324C73.866,58.581 74.133,58.777 74.466,58.909C74.803,59.038 75.184,59.102 75.608,59.102C76.025,59.102 76.386,59.042 76.693,58.92C77.004,58.799 77.244,58.631 77.415,58.415C77.585,58.199 77.671,57.951 77.671,57.67C77.671,57.409 77.593,57.189 77.438,57.011C77.286,56.833 77.063,56.682 76.767,56.557C76.475,56.432 76.117,56.318 75.693,56.216L74.426,55.898C73.445,55.659 72.671,55.286 72.102,54.778C71.534,54.271 71.252,53.587 71.256,52.727C71.252,52.023 71.439,51.407 71.818,50.881C72.201,50.354 72.725,49.943 73.392,49.648C74.059,49.352 74.816,49.205 75.665,49.205C76.528,49.205 77.282,49.352 77.926,49.648C78.574,49.943 79.078,50.354 79.438,50.881C79.797,51.407 79.983,52.017 79.994,52.71L77.636,52.71ZM81.808,61L81.808,49.364L89.649,49.364L89.649,51.392L84.269,51.392L84.269,54.165L89.246,54.165L89.246,56.193L84.269,56.193L84.269,58.972L89.672,58.972L89.672,61L81.808,61ZM91.605,61L91.605,49.364L99.446,49.364L99.446,51.392L94.065,51.392L94.065,54.165L99.043,54.165L99.043,56.193L94.065,56.193L94.065,58.972L99.469,58.972L99.469,61L91.605,61ZM101.402,61L101.402,49.364L103.862,49.364L103.862,54.494L104.016,54.494L108.203,49.364L111.152,49.364L106.834,54.574L111.203,61L108.26,61L105.072,56.216L103.862,57.693L103.862,61L101.402,61ZM112.433,61L112.433,49.364L120.274,49.364L120.274,51.392L114.893,51.392L114.893,54.165L119.871,54.165L119.871,56.193L114.893,56.193L114.893,58.972L120.297,58.972L120.297,61L112.433,61ZM122.23,61L122.23,49.364L126.821,49.364C127.7,49.364 128.45,49.521 129.071,49.835C129.696,50.146 130.171,50.587 130.497,51.159C130.827,51.727 130.991,52.396 130.991,53.165C130.991,53.938 130.825,54.602 130.491,55.159C130.158,55.712 129.675,56.136 129.043,56.432C128.414,56.727 127.652,56.875 126.759,56.875L123.685,56.875L123.685,54.898L126.361,54.898C126.83,54.898 127.221,54.833 127.531,54.705C127.842,54.576 128.073,54.383 128.224,54.125C128.38,53.867 128.457,53.547 128.457,53.165C128.457,52.778 128.38,52.453 128.224,52.188C128.073,51.922 127.84,51.722 127.526,51.585C127.215,51.445 126.823,51.375 126.349,51.375L124.69,51.375L124.69,61L122.23,61ZM128.514,55.705L131.406,61L128.69,61L125.861,55.705L128.514,55.705ZM139.043,52.71C138.997,52.252 138.802,51.896 138.457,51.642C138.113,51.388 137.645,51.261 137.054,51.261C136.652,51.261 136.313,51.318 136.037,51.432C135.76,51.542 135.548,51.695 135.401,51.892C135.257,52.089 135.185,52.313 135.185,52.563C135.177,52.771 135.221,52.953 135.315,53.108C135.414,53.263 135.548,53.398 135.719,53.511C135.889,53.621 136.086,53.718 136.31,53.801C136.533,53.881 136.772,53.949 137.026,54.006L138.071,54.256C138.579,54.369 139.045,54.521 139.469,54.71C139.893,54.9 140.26,55.133 140.571,55.409C140.882,55.686 141.122,56.011 141.293,56.386C141.467,56.761 141.556,57.191 141.56,57.676C141.556,58.388 141.374,59.006 141.014,59.528C140.658,60.047 140.143,60.451 139.469,60.739C138.798,61.023 137.99,61.165 137.043,61.165C136.103,61.165 135.285,61.021 134.588,60.733C133.895,60.445 133.353,60.019 132.963,59.455C132.577,58.886 132.374,58.184 132.355,57.347L134.736,57.347C134.762,57.737 134.874,58.063 135.071,58.324C135.272,58.581 135.539,58.777 135.872,58.909C136.209,59.038 136.59,59.102 137.014,59.102C137.431,59.102 137.793,59.042 138.099,58.92C138.41,58.799 138.651,58.631 138.821,58.415C138.991,58.199 139.077,57.951 139.077,57.67C139.077,57.409 138.999,57.189 138.844,57.011C138.692,56.833 138.469,56.682 138.173,56.557C137.882,56.432 137.524,56.318 137.099,56.216L135.832,55.898C134.851,55.659 134.077,55.286 133.509,54.778C132.94,54.271 132.658,53.587 132.662,52.727C132.658,52.023 132.846,51.407 133.224,50.881C133.607,50.354 134.132,49.943 134.798,49.648C135.465,49.352 136.223,49.205 137.071,49.205C137.935,49.205 138.688,49.352 139.332,49.648C139.98,49.943 140.484,50.354 140.844,50.881C141.204,51.407 141.389,52.017 141.401,52.71L139.043,52.71Z" style="fill:white;fill-rule:nonzero;"/>
    </g>
    <g transform="matrix(1.0853,0,0,1.09365,-0.775508,-0.240409)">
        <path d="M111.647,38.791L118.158,30.585L106.459,30.585" style="fill:none;fill-rule:nonzero;stroke:white;stroke-width:2px;"/>
    </g>
    <g transform="matrix(1.0853,0,0,1.09365,-3.99165,-0.240409)">
        <path d="M68.684,79.097L74.166,86L79.647,79.097" style="fill:none;fill-rule:nonzero;stroke:white;stroke-width:2px;"/>
    </g>
    <g transform="matrix(1.0853,0,0,1.09365,-0.775508,-0.240409)">
        <path d="M41.862,30.585L30.162,30.585L36.684,38.791" style="fill:none;fill-rule:nonzero;stroke:white;stroke-width:2px;"/>
    </g>
    <g transform="matrix(1.0853,0,0,1.09365,-0.775508,-0.240409)">
        <path d="M104.558,36.619C99.979,30.487 96.304,23.84 92.87,17.034C92.786,16.876 92.849,16.992 92.87,17.024C93.059,17.255 93.416,17.287 93.626,17.066C90.906,21.504 87.135,27.079 83.365,31.444C85.413,25.943 88.07,20.789 90.906,15.688C91.084,15.362 91.273,15.036 91.567,14.773C92.786,13.573 95.022,14.099 95.653,15.614C99.118,22.398 102.3,29.299 104.548,36.619L104.558,36.619Z" style="fill:white;fill-rule:nonzero;"/>
    </g>
    <g transform="matrix(1.0853,0,0,1.09365,-0.775508,-0.240409)">
        <path d="M58.056,24.639C56.438,22.819 54.107,19.306 53.172,18.065C53.225,18.096 53.34,18.054 53.403,18.002C52.868,19.474 52.269,20.936 51.628,22.367C49.496,27.058 47.112,31.581 43.762,35.589C45.002,28.867 47.785,22.662 51.061,16.74C51.943,15.12 54.485,15.309 55.083,16.992C56.165,19.495 57.205,22.009 58.045,24.639L58.056,24.639Z" style="fill:white;fill-rule:nonzero;"/>
    </g>
    <g transform="matrix(1.0853,0,0,1.09365,-0.775508,-0.240409)">
        <path d="M54.422,37.03C59.274,24.902 65.512,12.985 71.813,1.561C72.653,-0.427 75.489,-0.553 76.434,1.393C80.467,8.809 84.373,16.266 87.755,24.018C82.725,17.15 78.23,9.997 73.819,2.739C73.924,2.981 74.333,3.076 74.554,2.824C74.575,2.803 74.617,2.739 74.607,2.761C74.533,2.897 74.312,3.318 74.239,3.455C68.232,14.846 61.794,26.438 54.432,37.019L54.422,37.03Z" style="fill:white;fill-rule:nonzero;"/>
    </g>
    <g transform="matrix(1.0853,0,0,1.09365,-0.775508,-0.240409)">
        <path d="M111.647,38.791L118.158,30.585L106.459,30.585" style="fill:none;fill-rule:nonzero;stroke:white;stroke-width:2px;"/>
    </g>
    <g transform="matrix(1.0853,0,0,1.09365,-0.775508,-0.240409)">
        <path d="M41.862,30.585L30.162,30.585L36.684,38.791" style="fill:none;fill-rule:nonzero;stroke:white;stroke-width:2px;"/>
    </g>
    <g transform="matrix(1.0853,0,0,1.09365,-0.775508,-0.240409)">
        <path d="M104.558,36.619C99.979,30.487 96.304,23.84 92.87,17.034C92.786,16.876 92.849,16.992 92.87,17.024C93.059,17.255 93.416,17.287 93.626,17.066C90.906,21.504 87.135,27.079 83.365,31.444C85.413,25.943 88.07,20.789 90.906,15.688C91.084,15.362 91.273,15.036 91.567,14.773C92.786,13.573 95.022,14.099 95.653,15.614C99.118,22.398 102.3,29.299 104.548,36.619L104.558,36.619Z" style="fill:white;fill-rule:nonzero;"/>
    </g>
    <g transform="matrix(1.0853,0,0,1.09365,-0.775508,-0.240409)">
        <path d="M58.056,24.639C56.438,22.819 54.107,19.306 53.172,18.065C53.225,18.096 53.34,18.054 53.403,18.002C52.868,19.474 52.269,20.936 51.628,22.367C49.496,27.058 47.112,31.581 43.762,35.589C45.002,28.867 47.785,22.662 51.061,16.74C51.943,15.12 54.485,15.309 55.083,16.992C56.165,19.495 57.205,22.009 58.045,24.639L58.056,24.639Z" style="fill:white;fill-rule:nonzero;"/>
    </g>
    <g transform="matrix(1.0853,0,0,1.09365,-0.775508,-0.240409)">
        <path d="M54.422,37.03C59.274,24.902 65.512,12.985 71.813,1.561C72.653,-0.427 75.489,-0.553 76.434,1.393C80.467,8.809 84.373,16.266 87.755,24.018C82.725,17.15 78.23,9.997 73.819,2.739C73.924,2.981 74.333,3.076 74.554,2.824C74.575,2.803 74.617,2.739 74.607,2.761C74.533,2.897 74.312,3.318 74.239,3.455C68.232,14.846 61.794,26.438 54.432,37.019L54.422,37.03Z" style="fill:white;fill-rule:nonzero;"/>
    </g>
    <g transform="matrix(1.0853,0,0,1.09365,-6.09677,-0.240409)">
        <path d="M11.36,70.447L68.77,70.447" style="fill:none;fill-rule:nonzero;stroke:rgb(245,244,243);stroke-width:1px;stroke-miterlimit:4;"/>
    </g>
    <g transform="matrix(1.0853,0,0,1.09365,72.1455,-0.240409)">
        <path d="M11.36,70.447L68.77,70.447" style="fill:none;fill-rule:nonzero;stroke:rgb(245,244,243);stroke-width:1px;stroke-miterlimit:4;"/>
    </g>
    <g transform="matrix(1.0853,0,0,1.09365,-4.12188,-0.240409)">
        <circle cx="74.286" cy="70.447" r="2.758" style="fill:rgb(245,244,243);"/>
    </g>
</svg>
